<svg xmlns="http://www.w3.org/2000/svg" viewBox="0 0 138.42 28.24"><defs><style>.cls-1{fill:#fff;}</style></defs><title>Recurso 3</title><g id="Capa_2" data-name="Capa 2"><g id="header"><path class="cls-1" d="M14.48,0A24.64,24.64,0,0,0,2.4,3h0A5.1,5.1,0,0,0,0,7.89,32.08,32.08,0,0,0,11.59,27.17a4.7,4.7,0,0,0,2.89,1.07,4.68,4.68,0,0,0,2.89-1.07A32.12,32.12,0,0,0,28.93,7.89,5.1,5.1,0,0,0,26.58,3h0A24.61,24.61,0,0,0,14.48,0m0,1.92A22.78,22.78,0,0,1,25.57,4.65a3.15,3.15,0,0,1,1.45,3,30.23,30.23,0,0,1-10.85,18,2.74,2.74,0,0,1-1.69.65,2.73,2.73,0,0,1-1.68-.65,30.33,30.33,0,0,1-4.13-4l5.19-1.23c2.95-.7,3.27-4.23,3.27-4.23L13.88,17a4.18,4.18,0,0,1-2.78,2.35l-3.61.85a27.9,27.9,0,0,1-2.06-3.12L14.15,15a.27.27,0,0,1,.3.36l-.16.56L17,15.26a4.24,4.24,0,0,0,2.87-2.49,6.51,6.51,0,0,0,.55-1.94L14.5,12.24a4,4,0,0,1-2.28,1.48L4.6,15.52A32.69,32.69,0,0,1,3.1,12L15.44,9.11a.23.23,0,0,1,.26.28,7.51,7.51,0,0,1-.53,1.72l5.08-1.2a4.51,4.51,0,0,0,3.06-2.66,6.79,6.79,0,0,0,.58-2.07L2.52,10.23a21.94,21.94,0,0,1-.58-2.56,3.19,3.19,0,0,1,1.45-3A22.83,22.83,0,0,1,14.48,1.92"/><path class="cls-1" d="M32.46,22.44H29L39.84,5.72a1.2,1.2,0,0,1,1-.54h4L34.26,21.46a2.16,2.16,0,0,1-1.8,1"/><path class="cls-1" d="M45.69,22.44H41L50.11,8.58H44.89L46.66,5.7a1.1,1.1,0,0,1,.93-.52h14.9l-1.7,2.76a1.33,1.33,0,0,1-1.14.64H54.82Z"/><path class="cls-1" d="M67.57,22.44H63.14l1-3.48H57.86l-3.15,3a1.63,1.63,0,0,1-1.13.45H48.84l18-17a1.1,1.1,0,0,1,.76-.31H72.2Zm-2.86-5.82,1.76-6.29L60.3,16.59Z"/><path class="cls-1" d="M128,22.44h-4.58l1-3.48h-6.08L115,22.12a1.12,1.12,0,0,1-.79.32h-4.94L127,5.76a2.11,2.11,0,0,1,1.45-.58h4.21ZM125,16.62l1.79-6.31-6,6.28Z"/><path class="cls-1" d="M84.76,19,83,21.88a1.16,1.16,0,0,1-1,.56H69.36L80.56,5.18H85.3L76.22,19Z"/><path class="cls-1" d="M88.54,22.44h-4L95.41,5.67a1.09,1.09,0,0,1,.9-.49h4L89.5,21.92a1.15,1.15,0,0,1-1,.52"/><path class="cls-1" d="M109,22.44h-3.84a1.13,1.13,0,0,1-1.12-1L102.85,14l-5.73,8.45H92.43l10.9-16.75a1.09,1.09,0,0,1,.93-.51h4.08l-5.12,8.23L114,5.18h5.51l-11.89,9.05Z"/><path class="cls-1" d="M134.87,19.38h.25a3.8,3.8,0,0,0,.67,0,.43.43,0,0,0,.2-.15.37.37,0,0,0,0-.46.41.41,0,0,0-.2-.14,3.1,3.1,0,0,0-.67,0h-.25Zm-.62,1.73V18.06h1.6a1.28,1.28,0,0,1,.47.12.81.81,0,0,1,.29.29,1,1,0,0,1,.11.44.84.84,0,0,1-.21.57,1.06,1.06,0,0,1-.61.29.58.58,0,0,1,.21.11,1.77,1.77,0,0,1,.21.23l.22.37.36.62h-.76l-.26-.5a2,2,0,0,0-.42-.62.67.67,0,0,0-.43-.13h-.16v1.25Zm1.3-3.84a2.29,2.29,0,0,0-1.13.29,2.13,2.13,0,0,0-.86.85,2.34,2.34,0,0,0,0,2.31,2.22,2.22,0,0,0,.86.86,2.31,2.31,0,0,0,1.14.3,2.35,2.35,0,0,0,1.15-.3,2.2,2.2,0,0,0,.85-.86,2.23,2.23,0,0,0,.31-1.15,2.32,2.32,0,0,0-.31-1.16,2.2,2.2,0,0,0-.86-.85,2.36,2.36,0,0,0-1.14-.29m0-.57a3,3,0,0,1,1.41.37A2.66,2.66,0,0,1,138,18.13a2.89,2.89,0,0,1,.39,1.44A2.92,2.92,0,0,1,138,21,2.77,2.77,0,0,1,137,22.06a3,3,0,0,1-1.43.38,2.89,2.89,0,0,1-1.43-.38A2.64,2.64,0,0,1,133.06,21a2.81,2.81,0,0,1-.38-1.43,3,3,0,0,1,.38-1.44,2.73,2.73,0,0,1,1.07-1.06,3,3,0,0,1,1.42-.37"/></g></g></svg>