<svg width="29" height="29" viewBox="0 0 29 29" fill="none" xmlns="http://www.w3.org/2000/svg">
<path d="M14.5092 0.002091C10.2922 -0.0481862 6.13281 0.984771 2.42923 3.00209C1.60789 3.50698 0.946478 4.23434 0.521696 5.09983C0.0969138 5.96533 -0.0738406 6.9335 0.0292319 7.89209C1.43877 15.507 5.55539 22.355 11.6192 27.1721C12.4349 27.8434 13.453 28.2204 14.5092 28.2421C15.5657 28.2219 16.5843 27.8448 17.3992 27.1721C23.4491 22.3477 27.554 15.5014 28.9592 7.89209C29.0673 6.93847 28.9041 5.9737 28.4884 5.10868C28.0727 4.24366 27.4214 3.51349 26.6092 3.00209C22.9002 0.980178 18.7332 -0.0529687 14.5092 0.002091ZM14.5092 1.92209C18.3777 1.8756 22.1944 2.81513 25.5992 4.65209C26.0972 4.96658 26.4971 5.41439 26.7534 5.94467C27.0097 6.47496 27.1122 7.06648 27.0492 7.65209C25.7018 14.7567 21.8524 21.1429 16.1992 25.6521C15.7258 26.054 15.1299 26.2832 14.5092 26.3021C13.8918 26.2817 13.2996 26.0526 12.8292 25.6521C11.329 24.4525 9.94613 23.1132 8.69923 21.6521L13.8892 20.4221C16.8392 19.7221 17.1592 16.1921 17.1592 16.1921L13.9092 17.0021C13.653 17.5781 13.2699 18.0886 12.7885 18.4956C12.3071 18.9026 11.7398 19.1954 11.1292 19.3521L7.51923 20.2021C6.76358 19.2093 6.07537 18.167 5.45923 17.0821L14.1792 15.0021C14.2261 14.9938 14.2743 14.9981 14.3189 15.0144C14.3636 15.0308 14.4031 15.0586 14.4336 15.0951C14.464 15.1317 14.4843 15.1756 14.4923 15.2225C14.5003 15.2694 14.4958 15.3175 14.4792 15.3621L14.3192 15.9221L17.0292 15.2621C17.6683 15.0989 18.2605 14.7888 18.7588 14.3566C19.257 13.9243 19.6475 13.3818 19.8992 12.7721C20.1822 12.1579 20.3678 11.5034 20.4492 10.8321L14.5292 12.2421C13.9653 12.9864 13.1587 13.51 12.2492 13.7221L4.62923 15.5221C4.06093 14.3791 3.56008 13.2037 3.12923 12.0021L15.4692 9.11209C15.5065 9.10615 15.5447 9.10949 15.5804 9.12181C15.6161 9.13413 15.6482 9.15505 15.6739 9.18273C15.6996 9.2104 15.7181 9.24398 15.7278 9.28049C15.7374 9.31701 15.7379 9.35534 15.7292 9.39209C15.6222 9.9846 15.4442 10.5621 15.1992 11.1121L20.2792 9.91209C20.9615 9.73833 21.5936 9.40725 22.125 8.94535C22.6564 8.48344 23.0722 7.90355 23.3392 7.25209C23.6413 6.59727 23.837 5.89851 23.9192 5.18209L2.54923 10.2321C2.30498 9.3911 2.1113 8.53624 1.96923 7.67209C1.91095 7.08698 2.01553 6.49714 2.27141 5.96773C2.52729 5.43831 2.92453 4.98993 3.41923 4.67209C6.82305 2.83024 10.6392 1.88394 14.5092 1.92209Z" fill="white"/>
</svg>
